Coordinates
version=1
nRows=7
nColumns=40
inDegrees=yes

Units are S.I. units (second, meters, Newtons, ...)
If the header above contains a line with 'inDegrees', this indicates whether rotational values are in degrees (yes) or radians (no).

endheader
time	pelvis_tilt	pelvis_list	pelvis_rotation	pelvis_tx	pelvis_ty	pelvis_tz	hip_flexion_r	hip_adduction_r	hip_rotation_r	knee_angle_r	knee_angle_r_beta	ankle_angle_r	subtalar_angle_r	mtp_angle_r	hip_flexion_l	hip_adduction_l	hip_rotation_l	knee_angle_l	knee_angle_l_beta	ankle_angle_l	subtalar_angle_l	mtp_angle_l	lumbar_extension	lumbar_bending	lumbar_rotation	arm_flex_r	arm_add_r	arm_rot_r	elbow_flex_r	pro_sup_r	wrist_flex_r	wrist_dev_r	arm_flex_l	arm_add_l	arm_rot_l	elbow_flex_l	pro_sup_l	wrist_flex_l	wrist_dev_l
      7.00000000	      6.54202073	      0.60432671	    178.05995306	      0.24145504	      0.84736470	     -0.91266305	     30.25206177	    -28.46649889	    -25.46128948	     25.59708996	      0.44675350	    -10.35267224	      0.00000000	      0.00000000	     31.00762753	    -31.44829065	    -20.86817227	     31.07051776	      0.54228284	     -5.49538856	      0.00000000	      0.00000000	    -51.72830811	     -0.79664914	     -3.66856700	     35.15079132	     -7.79028656	     11.00463463	     41.54511019	     31.61850509	      0.00000000	      0.00000000	     47.66928284	    -19.78581936	     42.90956673	     24.09525278	     88.26750831	      0.00000000	      0.00000000
      7.00500000	      6.64426777	      0.63894097	    178.03995955	      0.24234914	      0.84689844	     -0.91266739	     30.43562675	    -28.44655629	    -25.51505789	     25.62435190	      0.44722931	    -10.35916539	      0.00000000	      0.00000000	     31.25421334	    -31.52749094	    -20.90028899	     31.16269039	      0.54389155	     -5.51596253	      0.00000000	      0.00000000	    -52.10574492	     -0.80369045	     -3.82738137	     35.57287927	     -7.56962268	     11.14617756	     41.67754588	     31.66002297	      0.00000000	      0.00000000	     48.09572992	    -19.90907950	     42.94651835	     23.93868382	     88.24279594	      0.00000000	      0.00000000
      7.01000000	      6.84183339	      0.64542873	    178.07209139	      0.24328663	      0.84617937	     -0.91255628	     30.73872866	    -28.50306504	    -25.62682271	     25.70749172	      0.44868037	    -10.41349357	      0.00000000	      0.00000000	     31.68888251	    -31.58716100	    -20.87720933	     31.38223378	      0.54772331	     -5.57393169	      0.00000000	      0.00000000	    -52.34771558	     -0.79809721	     -4.02562673	     36.08555677	     -7.38626507	     11.64559566	     41.39022101	     31.68548721	      0.00000000	      0.00000000	     48.65589157	    -19.89176912	     43.35016520	     23.40335304	     88.23453932	      0.00000000	      0.00000000
      7.01500000	      6.97603306	      0.68221282	    178.05253571	      0.24413747	      0.84568963	     -0.91257730	     30.94945818	    -28.47363131	    -25.71543688	     25.72037448	      0.44890522	    -10.40732939	      0.00000000	      0.00000000	     31.91158204	    -31.65733023	    -20.93260867	     31.38469110	      0.54776619	     -5.55740494	      0.00000000	      0.00000000	    -52.70185928	     -0.81404510	     -4.10588563	     36.42781387	     -7.25111365	     11.72512454	     41.51908901	     31.71433555	      0.00000000	      0.00000000	     49.08811716	    -19.96850547	     43.32430753	     23.35203606	     88.21740498	      0.00000000	      0.00000000
      7.02000000	      7.11972119	      0.70772229	    178.04688859	      0.24511058	      0.84509678	     -0.91253759	     31.22406862	    -28.47815837	    -25.71908662	     25.81746760	      0.45059981	    -10.46870043	      0.00000000	      0.00000000	     32.25942609	    -31.74117580	    -20.89237928	     31.56927653	      0.55098782	     -5.63605843	      0.00000000	      0.00000000	    -53.02050989	     -0.80397651	     -4.33160625	     36.89988853	     -6.97890466	     12.04204966	     41.56861910	     31.75937661	      0.00000000	      0.00000000	     49.56887455	    -20.07400838	     43.48391387	     22.95495551	     88.21774767	      0.00000000	      0.00000000
      7.02500000	      7.41144030	      0.71354959	    178.10382002	      0.24613793	      0.84415895	     -0.91240619	     31.66448364	    -28.55500675	    -25.78020400	     25.97702577	      0.45338463	    -10.51485782	      0.00000000	      0.00000000	     32.82378683	    -31.76736306	    -20.76110881	     31.76437269	      0.55439289	     -5.67085206	      0.00000000	      0.00000000	    -53.13979099	     -0.78705228	     -4.48731850	     37.41590544	     -6.93835763	     12.76417318	     41.11507132	     31.77733628	      0.00000000	      0.00000000	     50.21460824	    -19.93297810	     44.03428616	     22.20580691	     88.21827857	      0.00000000	      0.00000000
      7.03000000	      7.54551017	      0.75564323	    178.08330408	      0.24698477	      0.84367377	     -0.91243328	     31.88138575	    -28.52069569	    -25.84414465	     26.00530072	      0.45387812	    -10.51033956	      0.00000000	      0.00000000	     33.06240354	    -31.84404929	    -20.79214577	     31.79499258	      0.55492731	     -5.66310279	      0.00000000	      0.00000000	    -53.48558863	     -0.78638805	     -4.62295435	     37.80268042	     -6.74743830	     12.88898046	     41.27042514	     31.81901369	      0.00000000	      0.00000000	     50.63700644	    -20.05040077	     44.06483093	     22.05011988	     88.20592950	      0.00000000	      0.00000000
